<svg width="105" height="105" viewBox="0 0 105 105" fill="none" xmlns="http://www.w3.org/2000/svg">
    <g clip-path="url(#clip0_18_9)">
        <path d="M39.3848 41.0917C37.5466 41.0917 35.8323 42.0819 34.9104 43.6755C34.2172 44.874 32.684 45.2834 31.4855 44.5904C30.2871 43.8975 29.8777 42.364 30.5706 41.1655C32.3854 38.0275 35.7629 36.0782 39.3848 36.0782C43.0063 36.0782 46.3838 38.0275 48.1989 41.1653C48.8921 42.3637 48.4827 43.8972 47.2843 44.5902C46.8893 44.8188 46.4573 44.9274 46.0315 44.9277C45.1659 44.9277 44.3239 44.479 43.8594 43.6758C42.9375 42.0816 41.2227 41.0917 39.3848 41.0917ZM52.5696 67.6718C50.7314 67.6718 49.0169 66.6817 48.095 65.088C47.4018 63.8895 45.8683 63.4799 44.6701 64.1731C43.4717 64.866 43.0623 66.3995 43.7552 67.598C45.57 70.736 48.9475 72.6853 52.5696 72.6853C56.1912 72.6853 59.5687 70.736 61.3838 67.5982C62.077 66.3998 61.6676 64.8663 60.4691 64.1734C59.271 63.4801 57.7375 63.8895 57.0442 65.0877C56.1224 66.6817 54.4078 67.6718 52.5696 67.6718ZM105 43.2405V54.6713C105 58.9348 101.645 62.5265 97.3818 62.5265H92.7523C91.2319 67.2612 88.8191 71.8453 85.57 75.9426C80.2311 82.6751 72.8845 87.5652 64.7145 90.0309C64.3472 94.1552 60.8735 97.3411 56.6568 97.3411H48.4827C44.0217 97.3411 40.3924 93.7254 40.3924 89.2645C40.3924 84.8024 44.0217 81.1873 48.4827 81.1873H56.6568C59.5929 81.1873 62.1686 82.8032 63.5866 85.15C79.0369 80.3695 89.6499 66.145 89.6499 49.7778C89.6499 33.8481 79.5532 20.2321 65.4228 14.9944C61.7503 19.5085 57.1328 23.264 51.9728 25.9197C46.0713 28.9563 39.4207 30.5617 32.7402 30.5617C31.9651 30.5617 31.1758 30.5399 30.3946 30.497C29.0123 30.4216 27.9528 29.2395 28.0286 27.8573C28.1044 26.475 29.2819 25.4072 30.6684 25.491C31.3591 25.5289 32.0562 25.5476 32.7405 25.5476C43.3243 25.5476 53.1141 21.1885 60.1282 13.4703C57.7812 12.9824 55.3548 12.7153 52.8696 12.6955C52.8551 12.6941 52.8309 12.6922 52.8108 12.6922C52.8019 12.6927 52.7913 12.6858 52.7821 12.6858C52.7629 12.6852 52.7409 12.6729 52.7217 12.6729C52.7122 12.6729 52.7036 12.6729 52.6938 12.6729C52.6749 12.6729 52.6526 12.6729 52.6326 12.6729C52.6231 12.6729 52.615 12.6729 52.6044 12.6729C52.5927 12.6729 52.581 12.6729 52.5696 12.6729C32.1233 12.6724 15.5968 29.3315 15.5968 49.7775V59.8965C15.5968 61.281 14.3669 62.5265 12.9827 62.5265H7.75747C3.49397 62.5265 0 58.9348 0 54.6713V43.2405C0 39.8718 2.16851 36.9132 5.38174 35.8788C6.69967 35.4535 8.12149 36.1785 8.54566 37.4967C8.96984 38.814 8.2393 40.2267 6.92137 40.6508C5.80536 41.0101 5.01298 42.0749 5.01298 43.2405V54.6713C5.01298 56.1702 6.25794 57.5132 7.75719 57.5132H10.5836V49.7775C10.5836 26.5669 29.3591 7.65912 52.5696 7.65912C52.5827 7.65912 52.5966 7.65912 52.6095 7.65912C52.6198 7.65912 52.6306 7.65912 52.6412 7.65912C52.6512 7.65912 52.6618 7.65912 52.6718 7.65912C52.6844 7.65912 52.6989 7.65912 52.7117 7.65912C52.722 7.65912 52.7334 7.65912 52.7429 7.65912C52.7529 7.65912 52.7632 7.65912 52.7732 7.65912H52.7755C52.7888 7.65912 52.8008 7.65912 52.8142 7.65912C52.8253 7.65912 52.8351 7.65912 52.8459 7.65912C52.8565 7.65912 52.869 7.65912 52.8799 7.65912C52.8924 7.65912 52.9038 7.65912 52.9164 7.65912C52.9272 7.65912 52.9364 7.65912 52.9473 7.65912C52.9609 7.65912 52.9712 7.65912 52.9838 7.65912C52.9952 7.65912 53.0069 7.65912 53.0189 7.65912C53.0286 7.65912 53.0398 7.65912 53.0498 7.65912C53.0637 7.65912 53.0751 7.65912 53.0893 7.65912C53.0994 7.65912 53.1122 7.65912 53.1216 7.65912C53.1311 7.65912 53.1423 7.65857 53.1517 7.65912C53.1645 7.65912 53.1793 7.65912 53.1924 7.65912C53.2032 7.65912 53.2127 7.65912 53.2236 7.65912C53.2328 7.65912 53.2448 7.67472 53.2534 7.67444C53.2665 7.675 53.2796 7.68948 53.2932 7.69004C53.3032 7.68976 53.3155 7.68976 53.325 7.69059C53.3339 7.69059 53.3461 7.69032 53.355 7.69115C53.3681 7.69087 53.3823 7.69171 53.396 7.69171C53.4066 7.69227 53.4158 7.69199 53.4266 7.69254C53.4352 7.69254 53.4478 7.69282 53.4567 7.6931C53.4692 7.69338 53.4862 7.69421 53.4993 7.69394C53.5096 7.69449 53.5191 7.69449 53.5288 7.69477C53.5389 7.69477 53.5486 7.69533 53.5584 7.69533C53.5712 7.69616 53.587 7.69589 53.5999 7.69644C53.6099 7.69616 53.6196 7.697 53.6299 7.697C53.64 7.69784 53.6497 7.69784 53.6597 7.69784C53.6728 7.69839 53.687 7.69839 53.7004 7.69895C53.7107 7.69951 53.7199 7.69951 53.7305 7.69979C53.7402 7.70034 53.7511 7.70034 53.7603 7.70034C53.7734 7.70118 53.7837 7.70062 53.7968 7.70118C53.8076 7.70173 53.8188 7.70118 53.8299 7.70118C53.8405 7.70173 53.8494 7.70006 53.8605 7.70062C53.8717 7.7009 53.882 7.69644 53.8931 7.69867C53.9051 7.69923 53.9174 7.69227 53.9296 7.69366C53.9405 7.69394 53.9488 7.68224 53.9603 7.68196C53.9814 7.6828 54.0029 7.6594 54.024 7.6594H54.0274C54.0374 7.6594 54.048 7.6594 54.058 7.6594H54.0597C57.8898 7.93792 61.6656 8.48408 65.3044 9.63797C65.3554 9.65412 65.4055 9.71261 65.4548 9.73183C82.3827 15.1868 94.6629 31.1212 94.6629 49.8393C94.6629 52.4234 94.4348 55.0069 93.985 57.5135H97.3815C98.8805 57.5135 99.9865 56.1705 99.9865 54.6715V43.2408C99.9865 42.0752 99.2495 41.0104 98.1335 40.6511C96.8159 40.2269 96.134 38.8146 96.5582 37.497C96.9824 36.1793 98.3663 35.4554 99.684 35.8788C102.898 36.9135 105 39.8718 105 43.2405ZM59.7336 89.297C59.7336 89.0895 59.713 88.9336 59.6737 88.7375C59.6681 88.7136 59.6631 88.6676 59.6584 88.6436C59.349 87.2711 58.1207 86.2005 56.6571 86.2005H48.483C46.7863 86.2005 45.406 87.5672 45.406 89.2636C45.406 90.9614 46.7863 92.3278 48.483 92.3278H56.6571C58.3533 92.3276 59.7336 90.9937 59.7336 89.297ZM57.855 44.5902C59.0532 45.2837 60.5867 44.874 61.2799 43.6758C62.2021 42.0816 63.9166 41.0917 65.7545 41.0917C67.5924 41.0917 69.3072 42.0819 70.2291 43.6758C70.6937 44.479 71.5356 44.9277 72.4013 44.9277C72.8271 44.9274 73.2591 44.8188 73.654 44.5902C74.8525 43.8972 75.2619 42.3637 74.5687 41.1653C72.7536 38.0275 69.376 36.0782 65.7545 36.0782C62.133 36.0782 58.7554 38.0275 56.9404 41.1653C56.2471 42.3637 56.6566 43.8972 57.855 44.5902Z" fill="#4D4D4D"/>
    </g>
    <defs>
        <clipPath id="clip0_18_9">
            <rect width="105" height="105" fill="white"/>
        </clipPath>
    </defs>
</svg>
