<svg width="39" height="37" viewBox="0 0 39 37" fill="none" xmlns="http://www.w3.org/2000/svg">
    <path d="M27.1819 23.4257L26.214 24.3879C26.214 24.3879 23.9135 26.6754 17.6341 20.4315C11.3548 14.1879 13.6552 11.9005 13.6552 11.9005L14.2647 11.2944C15.7662 9.80153 15.9077 7.40468 14.5977 5.65489L11.9182 2.07554C10.2968 -0.0901772 7.16391 -0.376266 5.30558 1.47151L1.97018 4.78797C1.04874 5.70419 0.431252 6.89187 0.506137 8.20941C0.697706 11.5801 2.22275 18.8325 10.7326 27.294C19.757 36.267 28.2244 36.6236 31.6871 36.3008C32.7824 36.1988 33.7348 35.641 34.5023 34.8777L37.5211 31.8764C39.5588 29.8502 38.9842 26.3767 36.377 24.9595L32.3172 22.7525C30.6053 21.8219 28.5198 22.0952 27.1819 23.4257Z" fill="#F4F4F5"/>
</svg>
